<svg width="181" height="48" viewBox="0 0 181 48" fill="none" xmlns="http://www.w3.org/2000/svg">
<path d="M37.2298 24.5453C37.2298 24.5453 35.3872 23.614 33.2581 29.5544L36.9186 33.3434C36.9186 33.3434 39.5096 27.5864 37.2298 24.5453Z" fill="#375DAB"/>
<path d="M17.6583 29.2961C17.6583 29.2961 23.2977 33.346 29.6547 35.448L33.756 29.3474C33.756 29.3474 32.6777 28.9672 31.7835 28.0397C31.5914 28.4832 31.3129 28.8404 31.0158 29.1207C30.3619 29.7375 29.4909 30.0659 28.5948 30.1358C24.0124 30.4936 20.6748 27.5164 19.873 26.7235C19.1621 27.6399 18.3896 28.565 17.6583 29.2961Z" fill="#375DAB"/>
<path d="M12.9964 33.3228L19.1144 27.6724C19.1144 27.6724 23.9327 31.9673 28.7454 33.7359C29.0502 33.8479 29.3931 33.754 29.6062 33.5091C30.2825 32.7312 31.716 30.9444 32.2181 29.2449L33.7561 29.3475C33.7561 29.3475 35.3358 31.1297 36.731 32.282C37.0923 32.5804 37.357 32.9767 37.4754 33.43C38.0516 35.6353 38.9971 42.2708 31.5542 47.5119C31.3157 47.6799 31.0289 47.7659 30.737 47.7654C29.1078 47.763 23.5427 47.3456 18.9734 42.1128C18.9734 42.1128 16.5779 39.4706 13.7972 38.2353C12.8125 37.7978 12.1461 36.8574 12.049 35.7843C12.0078 35.3288 12.0718 34.87 12.2361 34.4432C12.4004 34.0164 12.6605 33.6331 12.9964 33.3228Z" fill="white"/>
<path d="M36.7311 32.2819C35.3358 31.1296 33.7561 29.3474 33.7561 29.3474L32.2208 29.245L32.2169 29.2486C31.7295 30.8937 30.3732 32.6168 29.6743 33.4299C30.4072 44.0542 22.5873 43.3505 19.4711 42.6577C23.9387 47.3735 29.1667 47.7629 30.7372 47.7652C31.029 47.7658 31.3158 47.6798 31.5544 47.5118C38.9973 42.2707 38.0518 35.6352 37.4756 33.4299C37.3571 32.9766 37.0923 32.5802 36.7311 32.2819Z" fill="#CDE0FF"/>
<path d="M37.7678 33.0601C37.6493 32.6067 37.3847 32.2104 37.0235 31.912C35.6282 30.7597 34.0485 28.9776 34.0485 28.9776L32.5105 28.875C32.0084 30.5745 30.575 32.3614 29.8987 33.1391C29.8008 33.251 29.6735 33.3333 29.5312 33.3765C31.5151 39.3252 31.3693 45.5034 31.2673 47.375C31.4748 47.3411 31.6737 47.2638 31.8469 47.1419C39.2896 41.9008 38.344 35.2654 37.7678 33.0601Z" fill="#AFC8FF"/>
<path d="M16.776 27.1573L18.6632 26.0863C19.1493 25.8106 19.7628 25.9144 20.1252 26.3398C20.7211 27.0396 21.5932 28.1985 22.1662 29.5604C22.5136 30.3864 22.2091 31.3424 21.4396 31.8014C20.7881 32.1901 19.9636 32.1239 19.3802 31.6388C18.6032 30.9923 17.493 30.021 16.5065 28.9801C15.9835 28.4282 16.1149 27.5326 16.776 27.1573Z" fill="#FFC105"/>
<path d="M31.9011 28.0192L31.9839 31.2482C31.9907 31.5131 32.0928 31.7666 32.2715 31.9623C32.4502 32.1579 32.6936 32.2824 32.9568 32.313C33.4489 32.3702 33.9203 32.0934 34.104 31.6333C34.295 31.1546 34.5119 30.5074 34.6056 29.8499C34.6502 29.5385 34.5326 29.2263 34.3015 29.0126C33.9318 28.6711 33.2877 28.1335 32.4609 27.6738C32.2062 27.5321 31.8937 27.7278 31.9011 28.0192Z" fill="url(#paint0_linear_701_303)"/>
<path d="M11.9984 23.0271C14.0151 24.1437 18.2838 27.3138 18.4304 34.1941C18.4362 34.4635 18.3728 34.73 18.2529 34.9713C17.6894 36.106 15.6882 39.2272 10.5487 39.7191C10.3266 39.7406 10.1025 39.7101 9.89417 39.6301C9.68585 39.5501 9.49897 39.4228 9.34832 39.2582C8.6526 38.4957 7.18879 37.0644 5.34557 36.2342C4.82179 35.9981 4.5111 35.4469 4.57813 34.8763C4.79544 33.0275 5.74391 29.1837 9.83713 27.35C10.3256 27.1312 10.6922 26.7131 10.8317 26.1964C10.9963 25.5876 11.1527 24.6904 11.0895 23.5974C11.0619 23.1157 11.5763 22.7933 11.9984 23.0271Z" fill="#EEF5FF"/>
<path d="M18.253 34.9713C18.3728 34.73 18.4362 34.4635 18.4304 34.1941C18.2873 27.4707 14.2092 24.2915 12.1412 23.1079C14.145 25.7378 19.5381 34.2981 8.77869 38.6704C8.97386 38.8612 9.16386 39.0572 9.3485 39.2582C9.49915 39.4228 9.68602 39.5502 9.89435 39.6302C10.1027 39.7101 10.3268 39.7406 10.5489 39.7191C15.6883 39.2272 17.6895 36.1061 18.253 34.9713Z" fill="#C7DAFF"/>
<path d="M8.02824 30.5713C8.20506 30.1834 8.52999 29.7387 9.12709 29.4146C9.15296 29.4006 9.18043 29.3877 9.20818 29.3775C9.32959 29.3324 9.69615 29.21 10.1047 29.2085C10.5433 29.2068 10.8257 29.6761 10.6097 30.0578C10.3306 30.5509 9.76712 31.1695 8.65881 31.36C8.2074 31.4374 7.83821 30.9881 8.02824 30.5713Z" fill="white"/>
<path d="M26.3803 4.43935C26.3803 2.11716 24.4979 0.234756 22.1757 0.234756C17.8632 0.234756 14.3673 3.73069 14.3673 8.04319V20.6569C14.3673 21.5755 15.112 22.3203 16.0306 22.3203C16.9493 22.3203 17.6939 21.5755 17.6939 20.6569V18.6471C17.6939 18.4449 17.7743 18.251 17.9172 18.108C18.0602 17.965 18.2541 17.8847 18.4563 17.8847C18.6585 17.8847 18.8524 17.965 18.9954 18.108C19.1384 18.251 19.2187 18.4449 19.2187 18.6471V19.3633C19.2187 19.9246 19.6737 20.3798 20.2352 20.3798C20.7966 20.3798 21.2517 19.9247 21.2517 19.3633V14.1422C21.2517 14.1422 21.1131 7.16532 26.3803 4.43935Z" fill="url(#paint1_linear_701_303)"/>
<path d="M22.1758 0.234744C21.0717 0.233883 19.9801 0.46814 18.9736 0.921931C20.8524 1.32215 23.681 2.62415 22.7169 6.86062L23.3511 7.11412C24.0795 6.07331 25.06 5.12268 26.3804 4.43934C26.3804 2.11715 24.4979 0.234744 22.1758 0.234744Z" fill="#FFC105"/>
<path d="M21.5169 16.7949C21.5169 16.7949 19.8709 16.0508 19.7007 13.1775C19.5812 11.1631 20.1969 9.1634 21.388 7.5345C21.8684 6.8775 22.4912 6.18328 23.2844 5.56181C26.2948 3.20287 30.518 3.11025 33.6522 5.30212C35.0294 6.26522 36.271 7.75162 36.6549 10.0377C36.707 10.3479 36.7307 10.6623 36.7437 10.9766C36.7858 12.0004 36.7794 14.1639 36.0522 15.0682L21.5169 16.7949Z" fill="#EEF5FF"/>
<path d="M36.0522 15.0683C36.7794 14.1639 36.7858 12.0004 36.7437 10.9766C36.7308 10.6623 36.707 10.3479 36.6549 10.0377C36.2709 7.75163 35.0294 6.26531 33.6522 5.30213C31.8575 4.04691 29.7062 3.5445 27.6295 3.78413C29.7818 4.69013 33.2174 7.6365 24.4812 16.4427L36.0522 15.0683Z" fill="#C7DAFF"/>
<path d="M21.055 11.2473C21.1641 10.5835 21.5455 8.92416 22.7366 7.8061C22.8835 7.66838 23.0728 7.58467 23.2736 7.56869C23.4743 7.55271 23.6745 7.60542 23.8413 7.71816C24.0351 7.84915 24.1691 8.05162 24.2139 8.2812C24.2587 8.51079 24.2107 8.74877 24.0803 8.943C23.575 9.69722 22.7314 10.8678 21.866 11.6788C21.7819 11.7575 21.6724 11.8038 21.5573 11.8092C21.4422 11.8146 21.3289 11.7788 21.2377 11.7083C21.1683 11.6553 21.1147 11.5843 21.0825 11.5031C21.0503 11.4219 21.0408 11.3335 21.055 11.2473Z" fill="white"/>
<path d="M22.7688 15.8102C23.7252 14.8695 27.1883 11.7006 33.0872 8.86772C33.0872 8.86772 36.3004 12.0809 37.9268 15.2544V16.8016C37.9268 16.8016 36.3948 19.3249 33.3403 21.2687C33.3403 21.2687 28.2361 20.2813 22.8842 16.8702C22.7366 16.7756 22.6307 16.6282 22.5882 16.4582C22.5591 16.3438 22.5605 16.2238 22.5922 16.1101C22.6239 15.9965 22.6848 15.893 22.7688 15.8102Z" fill="#EEF5FF"/>
<path d="M27.76 19.435C30.9662 20.8082 33.3403 21.2688 33.3403 21.2688C36.3948 19.325 37.9268 16.8017 37.9268 16.8017V15.2545C36.6004 12.6666 34.22 10.0535 33.3864 9.17691C33.4463 11.481 33.0679 17.4997 27.76 19.435Z" fill="#C7DAFF"/>
<path d="M37.9269 16.8016V15.2544C36.3005 12.0809 33.0873 8.86772 33.0873 8.86772C33.0873 8.86772 33.9505 13.6763 33.3404 21.2687C36.3949 19.3249 37.9269 16.8016 37.9269 16.8016Z" fill="#819FEA"/>
<path d="M30.4035 13.0451C30.4035 13.0451 30.9415 12.574 31.8492 12.0035C31.8492 12.0035 32.1653 15.8156 31.9066 18.316L30.461 17.5209L30.4035 13.0451ZM28.3024 14.4718L28.4708 16.445L27.1456 15.6854C27.1456 15.6855 27.9503 14.8897 28.3024 14.4718ZM34.6506 12.5865C34.6506 12.5865 34.8405 15.2757 34.6821 18.2077L35.6007 17.1531L35.6293 13.6716L34.6506 12.5865ZM36.9185 15.3309C36.7925 15.1844 36.6394 15.0123 36.502 14.8747V16.3971L36.9185 15.9254V15.3309Z" fill="#375DAB"/>
<path d="M22.5675 18.0859C23.4738 18.0859 24.2084 17.3512 24.2084 16.445C24.2084 15.5387 23.4738 14.8041 22.5675 14.8041C21.6613 14.8041 20.9266 15.5387 20.9266 16.445C20.9266 17.3512 21.6613 18.0859 22.5675 18.0859Z" fill="#C7DAFF"/>
<path d="M37.2297 24.5453C37.2297 24.5453 38.8115 27.5076 36.7492 32.3162C36.5202 32.8498 36.5934 33.4647 36.9613 33.9142C37.4764 34.5433 38.2634 35.4415 39.0777 36.1347C39.8179 36.7645 40.8422 36.934 41.7483 36.5824C42.138 36.4313 42.5712 36.2245 42.9994 35.9438C43.4033 35.6792 43.5448 35.1536 43.3329 34.7199C42.8108 33.6516 41.5853 31.5554 39.2127 29.436C39.0792 29.3167 38.9961 29.1504 38.988 28.9716C38.9482 28.0928 38.7057 25.3504 37.2297 24.5453Z" fill="#819FEA"/>
<path d="M17.8036 40.704C19.7167 38.7111 23.2833 35.167 27.1355 32.2032C26.3608 31.8265 25.6128 31.429 24.9094 31.0312C23.7198 33.3333 21.1254 36.4378 15.4688 39.1668C16.3535 39.6662 17.1529 40.2141 17.8036 40.704ZM29.25 33.1416C28.8815 32.9945 28.5167 32.8403 28.1561 32.6791C26.2681 34.587 21.9471 38.922 18.9822 41.6503C19.3264 41.9457 19.5241 42.134 19.5241 42.134C19.5751 42.1846 19.6266 42.2317 19.6777 42.2812C21.701 40.1177 25.8353 35.8293 29.25 33.1416Z" fill="#CDE0FF"/>
<path d="M66.5327 27.5181H61.9551V24.8813H66.5327C67.2814 24.8813 67.8877 24.7593 68.3516 24.5151C68.8236 24.2629 69.1694 23.9211 69.3892 23.4897C69.6089 23.0503 69.7188 22.5498 69.7188 21.9883C69.7188 21.443 69.6089 20.9344 69.3892 20.4624C69.1694 19.9904 68.8236 19.6079 68.3516 19.3149C67.8877 19.022 67.2814 18.8755 66.5327 18.8755H63.0537V34H59.6968V16.2266H66.5327C67.9162 16.2266 69.0962 16.4748 70.0728 16.9712C71.0575 17.4595 71.8062 18.139 72.3188 19.0098C72.8397 19.8724 73.1001 20.8571 73.1001 21.9639C73.1001 23.1113 72.8397 24.1001 72.3188 24.9302C71.8062 25.7603 71.0575 26.3991 70.0728 26.8467C69.0962 27.2943 67.9162 27.5181 66.5327 27.5181ZM82.6216 31.1924V25.1011C82.6216 24.6535 82.5443 24.2669 82.3896 23.9414C82.235 23.6159 81.999 23.3636 81.6816 23.1846C81.3643 23.0055 80.9614 22.916 80.4731 22.916C80.0418 22.916 79.6634 22.9893 79.3379 23.1357C79.0205 23.2822 78.7764 23.4897 78.6055 23.7583C78.4346 24.0187 78.3491 24.3198 78.3491 24.6616H75.1143C75.1143 24.1164 75.2445 23.5996 75.5049 23.1113C75.7653 22.6149 76.1356 22.1755 76.6157 21.793C77.104 21.4023 77.6859 21.0972 78.3613 20.8774C79.0449 20.6577 79.8099 20.5479 80.6562 20.5479C81.6572 20.5479 82.5483 20.7188 83.3296 21.0605C84.119 21.3942 84.7375 21.8988 85.1851 22.5742C85.6408 23.2497 85.8687 24.1001 85.8687 25.1255V30.8872C85.8687 31.5464 85.9093 32.112 85.9907 32.584C86.0802 33.0479 86.2104 33.4507 86.3813 33.7925V34H83.0977C82.943 33.6663 82.825 33.2432 82.7437 32.7305C82.6623 32.2096 82.6216 31.6969 82.6216 31.1924ZM83.0732 25.9556L83.0977 27.8721H81.0591C80.5545 27.8721 80.111 27.925 79.7285 28.0308C79.346 28.1284 79.0327 28.2749 78.7886 28.4702C78.5444 28.6574 78.3613 28.8853 78.2393 29.1538C78.1172 29.4142 78.0562 29.7113 78.0562 30.0449C78.0562 30.3704 78.1294 30.6634 78.2759 30.9238C78.4305 31.1842 78.6502 31.3918 78.9351 31.5464C79.228 31.6929 79.5698 31.7661 79.9604 31.7661C80.5301 31.7661 81.0265 31.6522 81.4497 31.4243C81.8729 31.1883 82.2025 30.9035 82.4385 30.5698C82.6745 30.2362 82.8006 29.9188 82.8169 29.6177L83.7446 31.0093C83.6307 31.3429 83.4598 31.6969 83.2319 32.0713C83.0041 32.4456 82.7111 32.7956 82.353 33.1211C81.995 33.4466 81.5636 33.7152 81.0591 33.9268C80.5545 34.1383 79.9686 34.2441 79.3013 34.2441C78.4468 34.2441 77.6818 34.0732 77.0063 33.7314C76.3309 33.3896 75.7979 32.9217 75.4072 32.3276C75.0166 31.7336 74.8213 31.0581 74.8213 30.3013C74.8213 29.6014 74.9515 28.9829 75.2119 28.4458C75.4723 27.9087 75.8589 27.457 76.3716 27.0908C76.8843 26.7165 77.519 26.4357 78.2759 26.2485C79.0409 26.0532 79.9157 25.9556 80.9004 25.9556H83.0732ZM96.0371 30.3867C96.0371 30.11 95.9639 29.8618 95.8174 29.6421C95.6709 29.4224 95.3942 29.223 94.9873 29.0439C94.5885 28.8568 94.0026 28.6818 93.2295 28.519C92.5459 28.3726 91.9152 28.1895 91.3374 27.9697C90.7596 27.75 90.2632 27.4855 89.8481 27.1763C89.4331 26.8589 89.1076 26.4886 88.8716 26.0654C88.6437 25.6341 88.5298 25.1377 88.5298 24.5762C88.5298 24.0309 88.6478 23.5182 88.8838 23.0381C89.1198 22.5498 89.4616 22.1226 89.9092 21.7563C90.3568 21.382 90.902 21.089 91.5449 20.8774C92.1878 20.6577 92.9121 20.5479 93.7178 20.5479C94.8408 20.5479 95.8052 20.731 96.6108 21.0972C97.4246 21.4634 98.0472 21.9679 98.4785 22.6108C98.9098 23.2456 99.1255 23.9618 99.1255 24.7593H95.9028C95.9028 24.4093 95.8215 24.092 95.6587 23.8071C95.5041 23.5223 95.264 23.2944 94.9385 23.1235C94.613 22.9445 94.202 22.855 93.7056 22.855C93.258 22.855 92.8796 22.9282 92.5703 23.0747C92.2692 23.2212 92.0413 23.4124 91.8867 23.6484C91.7321 23.8844 91.6548 24.1449 91.6548 24.4297C91.6548 24.6413 91.6955 24.8325 91.7769 25.0034C91.8664 25.1662 92.0088 25.3167 92.2041 25.4551C92.3994 25.5934 92.6639 25.7196 92.9976 25.8335C93.3394 25.9474 93.7585 26.0573 94.2549 26.1631C95.2396 26.3584 96.0981 26.6188 96.8306 26.9443C97.5711 27.2617 98.1489 27.6849 98.564 28.2139C98.979 28.7428 99.1865 29.4183 99.1865 30.2402C99.1865 30.8262 99.0604 31.3633 98.8081 31.8516C98.5558 32.3317 98.1896 32.7508 97.7095 33.1089C97.2293 33.467 96.6556 33.7477 95.9883 33.9512C95.321 34.1465 94.5682 34.2441 93.73 34.2441C92.5174 34.2441 91.492 34.0285 90.6538 33.5972C89.8156 33.1577 89.1808 32.6043 88.7495 31.937C88.3182 31.2616 88.1025 30.5617 88.1025 29.8374H91.1909C91.2153 30.3501 91.3537 30.7611 91.606 31.0703C91.8582 31.3796 92.1756 31.6034 92.5581 31.7417C92.9487 31.8719 93.3597 31.937 93.791 31.937C94.2793 31.937 94.6903 31.8719 95.0239 31.7417C95.3576 31.6034 95.6099 31.4202 95.7808 31.1924C95.9517 30.9564 96.0371 30.6878 96.0371 30.3867ZM108.903 30.3867C108.903 30.11 108.83 29.8618 108.684 29.6421C108.537 29.4224 108.26 29.223 107.854 29.0439C107.455 28.8568 106.869 28.6818 106.096 28.519C105.412 28.3726 104.781 28.1895 104.204 27.9697C103.626 27.75 103.129 27.4855 102.714 27.1763C102.299 26.8589 101.974 26.4886 101.738 26.0654C101.51 25.6341 101.396 25.1377 101.396 24.5762C101.396 24.0309 101.514 23.5182 101.75 23.0381C101.986 22.5498 102.328 22.1226 102.775 21.7563C103.223 21.382 103.768 21.089 104.411 20.8774C105.054 20.6577 105.778 20.5479 106.584 20.5479C107.707 20.5479 108.671 20.731 109.477 21.0972C110.291 21.4634 110.913 21.9679 111.345 22.6108C111.776 23.2456 111.992 23.9618 111.992 24.7593H108.769C108.769 24.4093 108.688 24.092 108.525 23.8071C108.37 23.5223 108.13 23.2944 107.805 23.1235C107.479 22.9445 107.068 22.855 106.572 22.855C106.124 22.855 105.746 22.9282 105.437 23.0747C105.135 23.2212 104.908 23.4124 104.753 23.6484C104.598 23.8844 104.521 24.1449 104.521 24.4297C104.521 24.6413 104.562 24.8325 104.643 25.0034C104.733 25.1662 104.875 25.3167 105.07 25.4551C105.266 25.5934 105.53 25.7196 105.864 25.8335C106.206 25.9474 106.625 26.0573 107.121 26.1631C108.106 26.3584 108.964 26.6188 109.697 26.9443C110.437 27.2617 111.015 27.6849 111.43 28.2139C111.845 28.7428 112.053 29.4183 112.053 30.2402C112.053 30.8262 111.927 31.3633 111.674 31.8516C111.422 32.3317 111.056 32.7508 110.576 33.1089C110.096 33.467 109.522 33.7477 108.854 33.9512C108.187 34.1465 107.434 34.2441 106.596 34.2441C105.384 34.2441 104.358 34.0285 103.52 33.5972C102.682 33.1577 102.047 32.6043 101.616 31.937C101.184 31.2616 100.969 30.5617 100.969 29.8374H104.057C104.082 30.3501 104.22 30.7611 104.472 31.0703C104.724 31.3796 105.042 31.6034 105.424 31.7417C105.815 31.8719 106.226 31.937 106.657 31.937C107.146 31.937 107.556 31.8719 107.89 31.7417C108.224 31.6034 108.476 31.4202 108.647 31.1924C108.818 30.9564 108.903 30.6878 108.903 30.3867Z" fill="white"/>
<path d="M128.618 24.8081V31.7295C128.357 32.0632 127.946 32.4253 127.385 32.8159C126.831 33.2065 126.107 33.5443 125.212 33.8291C124.317 34.1058 123.218 34.2441 121.916 34.2441C120.785 34.2441 119.751 34.057 118.815 33.6826C117.88 33.3001 117.074 32.7427 116.398 32.0103C115.723 31.2778 115.202 30.3826 114.836 29.3247C114.47 28.2668 114.287 27.0583 114.287 25.6992V24.5273C114.287 23.1683 114.458 21.9598 114.799 20.9019C115.149 19.8439 115.646 18.9487 116.289 18.2163C116.94 17.4839 117.717 16.9264 118.62 16.5439C119.532 16.1615 120.549 15.9702 121.672 15.9702C123.177 15.9702 124.414 16.2184 125.383 16.7148C126.359 17.2113 127.108 17.8949 127.629 18.7656C128.15 19.6283 128.475 20.6211 128.605 21.7441H125.334C125.244 21.1257 125.065 20.5845 124.797 20.1206C124.528 19.6486 124.146 19.2824 123.649 19.022C123.161 18.7534 122.526 18.6191 121.745 18.6191C121.086 18.6191 120.504 18.7493 120 19.0098C119.495 19.2702 119.072 19.6486 118.73 20.145C118.388 20.6414 118.128 21.2559 117.949 21.9883C117.778 22.7207 117.692 23.5589 117.692 24.5029V25.6992C117.692 26.6514 117.79 27.4977 117.985 28.2383C118.181 28.9707 118.461 29.5892 118.828 30.0938C119.202 30.5902 119.662 30.9686 120.207 31.229C120.76 31.4813 121.387 31.6074 122.087 31.6074C122.722 31.6074 123.247 31.5545 123.662 31.4487C124.085 31.3348 124.423 31.2005 124.675 31.0459C124.927 30.8913 125.122 30.7407 125.261 30.5942V27.2617H121.733V24.8081H128.618ZM139.409 30.8628V20.792H142.656V34H139.604L139.409 30.8628ZM139.824 28.1284L140.825 28.104C140.825 28.991 140.727 29.8089 140.532 30.5576C140.336 31.3063 140.031 31.9574 139.616 32.5107C139.209 33.056 138.693 33.4832 138.066 33.7925C137.439 34.0936 136.699 34.2441 135.844 34.2441C135.193 34.2441 134.599 34.1546 134.062 33.9756C133.525 33.7884 133.061 33.4995 132.67 33.1089C132.288 32.7101 131.991 32.2015 131.779 31.583C131.568 30.9564 131.462 30.2036 131.462 29.3247V20.792H134.685V29.3491C134.685 29.7886 134.733 30.1548 134.831 30.4478C134.937 30.7407 135.079 30.9808 135.258 31.168C135.445 31.347 135.661 31.4772 135.905 31.5586C136.158 31.6318 136.426 31.6685 136.711 31.6685C137.492 31.6685 138.107 31.5138 138.554 31.2046C139.01 30.8872 139.335 30.464 139.531 29.9351C139.726 29.3979 139.824 28.7957 139.824 28.1284ZM152.788 31.1924V25.1011C152.788 24.6535 152.71 24.2669 152.556 23.9414C152.401 23.6159 152.165 23.3636 151.848 23.1846C151.53 23.0055 151.127 22.916 150.639 22.916C150.208 22.916 149.829 22.9893 149.504 23.1357C149.187 23.2822 148.942 23.4897 148.771 23.7583C148.601 24.0187 148.515 24.3198 148.515 24.6616H145.28C145.28 24.1164 145.41 23.5996 145.671 23.1113C145.931 22.6149 146.302 22.1755 146.782 21.793C147.27 21.4023 147.852 21.0972 148.527 20.8774C149.211 20.6577 149.976 20.5479 150.822 20.5479C151.823 20.5479 152.714 20.7188 153.496 21.0605C154.285 21.3942 154.903 21.8988 155.351 22.5742C155.807 23.2497 156.035 24.1001 156.035 25.1255V30.8872C156.035 31.5464 156.075 32.112 156.157 32.584C156.246 33.0479 156.376 33.4507 156.547 33.7925V34H153.264C153.109 33.6663 152.991 33.2432 152.91 32.7305C152.828 32.2096 152.788 31.6969 152.788 31.1924ZM153.239 25.9556L153.264 27.8721H151.225C150.721 27.8721 150.277 27.925 149.895 28.0308C149.512 28.1284 149.199 28.2749 148.955 28.4702C148.71 28.6574 148.527 28.8853 148.405 29.1538C148.283 29.4142 148.222 29.7113 148.222 30.0449C148.222 30.3704 148.295 30.6634 148.442 30.9238C148.597 31.1842 148.816 31.3918 149.101 31.5464C149.394 31.6929 149.736 31.7661 150.126 31.7661C150.696 31.7661 151.193 31.6522 151.616 31.4243C152.039 31.1883 152.368 30.9035 152.604 30.5698C152.84 30.2362 152.967 29.9188 152.983 29.6177L153.911 31.0093C153.797 31.3429 153.626 31.6969 153.398 32.0713C153.17 32.4456 152.877 32.7956 152.519 33.1211C152.161 33.4466 151.73 33.7152 151.225 33.9268C150.721 34.1383 150.135 34.2441 149.467 34.2441C148.613 34.2441 147.848 34.0732 147.172 33.7314C146.497 33.3896 145.964 32.9217 145.573 32.3276C145.183 31.7336 144.987 31.0581 144.987 30.3013C144.987 29.6014 145.118 28.9829 145.378 28.4458C145.638 27.9087 146.025 27.457 146.538 27.0908C147.05 26.7165 147.685 26.4357 148.442 26.2485C149.207 26.0532 150.082 25.9556 151.066 25.9556H153.239ZM162.163 23.4897V34H158.94V20.792H161.992L162.163 23.4897ZM166.179 20.7065L166.13 23.7095C165.951 23.6769 165.747 23.6525 165.52 23.6362C165.3 23.62 165.092 23.6118 164.897 23.6118C164.401 23.6118 163.965 23.681 163.591 23.8193C163.216 23.9495 162.903 24.1408 162.651 24.3931C162.407 24.6453 162.22 24.9546 162.089 25.3208C161.959 25.6789 161.886 26.0858 161.87 26.5415L161.174 26.4561C161.174 25.6178 161.259 24.8407 161.43 24.1245C161.601 23.4084 161.849 22.7817 162.175 22.2446C162.5 21.7075 162.907 21.2925 163.396 20.9995C163.892 20.6984 164.462 20.5479 165.104 20.5479C165.284 20.5479 165.475 20.5641 165.678 20.5967C165.89 20.6211 166.057 20.6577 166.179 20.7065ZM175.627 31.1924V15.25H178.874V34H175.944L175.627 31.1924ZM167.143 27.5547V27.2983C167.143 26.2892 167.257 25.3737 167.485 24.5518C167.721 23.7217 168.063 23.0096 168.51 22.4155C168.958 21.8215 169.499 21.3617 170.134 21.0361C170.777 20.7106 171.505 20.5479 172.319 20.5479C173.108 20.5479 173.796 20.7065 174.382 21.0239C174.976 21.3413 175.48 21.793 175.896 22.3789C176.319 22.9648 176.656 23.6606 176.909 24.4663C177.161 25.2638 177.344 26.1427 177.458 27.103V27.7988C177.344 28.7347 177.161 29.5933 176.909 30.3745C176.656 31.1558 176.319 31.8394 175.896 32.4253C175.48 33.0031 174.976 33.4507 174.382 33.7681C173.788 34.0854 173.092 34.2441 172.294 34.2441C171.489 34.2441 170.764 34.0773 170.122 33.7437C169.487 33.41 168.946 32.9421 168.498 32.3398C168.059 31.7376 167.721 31.0296 167.485 30.2158C167.257 29.402 167.143 28.515 167.143 27.5547ZM170.378 27.2983V27.5547C170.378 28.1243 170.427 28.6574 170.524 29.1538C170.622 29.6502 170.781 30.0897 171 30.4722C171.22 30.8465 171.501 31.1395 171.843 31.3511C172.193 31.5627 172.616 31.6685 173.112 31.6685C173.747 31.6685 174.268 31.5301 174.675 31.2534C175.09 30.9686 175.411 30.582 175.639 30.0938C175.867 29.5973 176.014 29.0399 176.079 28.4214V26.5049C176.046 26.0166 175.961 25.5649 175.822 25.1499C175.692 24.7349 175.505 24.3768 175.261 24.0757C175.025 23.7746 174.732 23.5386 174.382 23.3677C174.032 23.1968 173.617 23.1113 173.137 23.1113C172.64 23.1113 172.217 23.2212 171.867 23.4409C171.517 23.6525 171.232 23.9495 171.013 24.332C170.793 24.7145 170.63 25.158 170.524 25.6626C170.427 26.1672 170.378 26.7124 170.378 27.2983Z" fill="#FFC105"/>
<defs>
<linearGradient id="paint0_linear_701_303" x1="32.6585" y1="31.006" x2="34.348" y2="25.3745" gradientUnits="userSpaceOnUse">
<stop stop-color="#FFC105"/>
<stop offset="1" stop-color="#8E3979"/>
</linearGradient>
<linearGradient id="paint1_linear_701_303" x1="20.3738" y1="11.2138" x2="20.3738" y2="38.5811" gradientUnits="userSpaceOnUse">
<stop stop-color="#FFC105"/>
<stop offset="1" stop-color="#8E3979"/>
</linearGradient>
</defs>
</svg>
