<svg width="22" height="21" viewBox="0 0 22 21" fill="none" xmlns="http://www.w3.org/2000/svg">
<path d="M12.2917 1.99994H5.45833C5.00526 1.99994 4.57073 2.17992 4.25036 2.5003C3.92998 2.82067 3.75 3.25519 3.75 3.70827V17.3749C3.75 17.828 3.92998 18.2625 4.25036 18.5829C4.57073 18.9033 5.00526 19.0833 5.45833 19.0833H15.7083C16.1614 19.0833 16.5959 18.9033 16.9163 18.5829C17.2367 18.2625 17.4167 17.828 17.4167 17.3749V7.12494M12.2917 1.99994L17.4167 7.12494M12.2917 1.99994L12.2917 7.12494H17.4167M14 11.3958H7.16667M14 14.8124H7.16667M8.875 7.97911H7.16667" stroke="white" stroke-width="2" stroke-linecap="round" stroke-linejoin="round"/>
</svg>
