<svg width="20" height="20" viewBox="0 0 20 20" fill="none" xmlns="http://www.w3.org/2000/svg">
<path d="M7.51442 7.68748C7.71523 7.11661 8.11161 6.63524 8.63334 6.32861C9.15506 6.02199 9.76847 5.90991 10.3649 6.01221C10.9614 6.11452 11.5024 6.42462 11.8921 6.88758C12.2818 7.35054 12.4951 7.93649 12.4942 8.54165C12.4942 10.25 9.93171 11.1041 9.93171 11.1041M10 14.5208H10.0086M18.5417 10.25C18.5417 14.9674 14.7175 18.7916 10 18.7916C5.28261 18.7916 1.45837 14.9674 1.45837 10.25C1.45837 5.53255 5.28261 1.70831 10 1.70831C14.7175 1.70831 18.5417 5.53255 18.5417 10.25Z" stroke="white" stroke-width="2" stroke-linecap="round" stroke-linejoin="round"/>
</svg>
