<svg width="22" height="21" viewBox="0 0 22 21" fill="none" xmlns="http://www.w3.org/2000/svg">
<g clip-path="url(#clip0_687_101)">
<path d="M11 13.3125C12.4152 13.3125 13.5625 12.1652 13.5625 10.75C13.5625 9.33477 12.4152 8.1875 11 8.1875C9.58477 8.1875 8.4375 9.33477 8.4375 10.75C8.4375 12.1652 9.58477 13.3125 11 13.3125Z" stroke="white" stroke-width="2" stroke-linecap="round" stroke-linejoin="round"/>
<path d="M17.3208 13.3125C17.2071 13.5702 17.1732 13.8559 17.2234 14.133C17.2737 14.4101 17.4057 14.6658 17.6027 14.8671L17.6539 14.9184C17.8128 15.077 17.9388 15.2654 18.0247 15.4728C18.1107 15.6802 18.1549 15.9025 18.1549 16.127C18.1549 16.3515 18.1107 16.5738 18.0247 16.7812C17.9388 16.9886 17.8128 17.177 17.6539 17.3356C17.4953 17.4945 17.3068 17.6205 17.0995 17.7065C16.8921 17.7924 16.6698 17.8367 16.4453 17.8367C16.2208 17.8367 15.9985 17.7924 15.7911 17.7065C15.5837 17.6205 15.3953 17.4945 15.2366 17.3356L15.1854 17.2844C14.9841 17.0875 14.7284 16.9554 14.4513 16.9051C14.1742 16.8549 13.8884 16.8888 13.6308 17.0025C13.3782 17.1108 13.1627 17.2906 13.0109 17.5197C12.8592 17.7489 12.7777 18.0175 12.7766 18.2923V18.4375C12.7766 18.8906 12.5966 19.3251 12.2763 19.6455C11.9559 19.9659 11.5214 20.1459 11.0683 20.1459C10.6152 20.1459 10.1807 19.9659 9.86032 19.6455C9.53994 19.3251 9.35996 18.8906 9.35996 18.4375V18.3606C9.35335 18.0779 9.26183 17.8037 9.09731 17.5737C8.93279 17.3437 8.70288 17.1685 8.43746 17.0709C8.17983 16.9572 7.89404 16.9232 7.61696 16.9735C7.33987 17.0237 7.08418 17.1558 6.88288 17.3527L6.83163 17.404C6.67297 17.5628 6.48456 17.6888 6.27717 17.7748C6.06978 17.8608 5.84748 17.905 5.62298 17.905C5.39848 17.905 5.17618 17.8608 4.96879 17.7748C4.7614 17.6888 4.57299 17.5628 4.41433 17.404C4.2555 17.2453 4.12949 17.0569 4.04352 16.8495C3.95755 16.6421 3.9133 16.4198 3.9133 16.1953C3.9133 15.9708 3.95755 15.7485 4.04352 15.5411C4.12949 15.3338 4.2555 15.1453 4.41433 14.9867L4.46558 14.9354C4.6625 14.7341 4.7946 14.4784 4.84484 14.2014C4.89508 13.9243 4.86116 13.6385 4.74746 13.3809C4.63918 13.1282 4.4594 12.9128 4.23023 12.761C4.00107 12.6092 3.73253 12.5278 3.45767 12.5267H3.31246C2.85938 12.5267 2.42486 12.3467 2.10449 12.0263C1.78411 11.706 1.60413 11.2714 1.60413 10.8184C1.60413 10.3653 1.78411 9.93075 2.10449 9.61038C2.42486 9.29 2.85938 9.11002 3.31246 9.11002H3.38933C3.67206 9.10341 3.94625 9.01189 4.17628 8.84737C4.4063 8.68285 4.58151 8.45294 4.67913 8.18752C4.79283 7.92989 4.82675 7.6441 4.7765 7.36702C4.72626 7.08993 4.59417 6.83425 4.39725 6.63294L4.346 6.58169C4.18717 6.42303 4.06116 6.23462 3.97519 6.02723C3.88922 5.81984 3.84497 5.59754 3.84497 5.37304C3.84497 5.14854 3.88922 4.92624 3.97519 4.71885C4.06116 4.51146 4.18717 4.32305 4.346 4.1644C4.50466 4.00556 4.69307 3.87956 4.90046 3.79358C5.10785 3.70761 5.33015 3.66336 5.55465 3.66336C5.77915 3.66336 6.00145 3.70761 6.20884 3.79358C6.41622 3.87956 6.60463 4.00556 6.76329 4.1644L6.81454 4.21565C7.01585 4.41256 7.27154 4.54466 7.54862 4.5949C7.82571 4.64514 8.1115 4.61122 8.36913 4.49752H8.43746C8.6901 4.38924 8.90556 4.20946 9.05732 3.98029C9.20909 3.75113 9.29053 3.48259 9.29163 3.20773V3.06252C9.29163 2.60944 9.47161 2.17492 9.79199 1.85455C10.1124 1.53417 10.5469 1.35419 11 1.35419C11.453 1.35419 11.8876 1.53417 12.2079 1.85455C12.5283 2.17492 12.7083 2.60944 12.7083 3.06252V3.1394C12.7094 3.41425 12.7908 3.6828 12.9426 3.91196C13.0944 4.14112 13.3098 4.32091 13.5625 4.42919C13.8201 4.54289 14.1059 4.57681 14.383 4.52657C14.66 4.47632 14.9157 4.34423 15.117 4.14731L15.1683 4.09606C15.3269 3.93723 15.5154 3.81122 15.7227 3.72525C15.9301 3.63928 16.1524 3.59503 16.3769 3.59503C16.6014 3.59503 16.8237 3.63928 17.0311 3.72525C17.2385 3.81122 17.4269 3.93723 17.5856 4.09606C17.7444 4.25472 17.8704 4.44313 17.9564 4.65052C18.0424 4.85791 18.0866 5.08021 18.0866 5.30471C18.0866 5.52921 18.0424 5.75151 17.9564 5.9589C17.8704 6.16629 17.7444 6.3547 17.5856 6.51335L17.5343 6.5646C17.3374 6.76591 17.2053 7.0216 17.1551 7.29868C17.1048 7.57577 17.1388 7.86156 17.2525 8.11919V8.18752C17.3607 8.44016 17.5405 8.65562 17.7697 8.80738C17.9989 8.95915 18.2674 9.04059 18.5423 9.04169H18.6875C19.1405 9.04169 19.5751 9.22167 19.8954 9.54205C20.2158 9.86242 20.3958 10.2969 20.3958 10.75C20.3958 11.2031 20.2158 11.6376 19.8954 11.958C19.5751 12.2784 19.1405 12.4584 18.6875 12.4584H18.6106C18.3357 12.4594 18.0672 12.5409 17.838 12.6927C17.6089 12.8444 17.4291 13.0599 17.3208 13.3125V13.3125Z" stroke="white" stroke-width="2" stroke-linecap="round" stroke-linejoin="round"/>
</g>
<defs>
<clipPath id="clip0_687_101">
<rect width="20.5" height="20.5" fill="white" transform="translate(0.75 0.5)"/>
</clipPath>
</defs>
</svg>
