<svg xmlns="http://www.w3.org/2000/svg" width="16" height="16" viewBox="0 0 16 16" fill="none">
<path d="M10.0776 0C9.14195 0.000838676 8.21976 0.222872 7.38633 0.64797C6.5529 1.07307 5.83185 1.68918 5.28206 2.446C4.73228 3.20282 4.36934 4.0789 4.22287 5.00269C4.07641 5.92648 4.15058 6.87181 4.43933 7.76148L0.173394 12.0252C0.118362 12.0803 0.0747236 12.1456 0.0449721 12.2176C0.0152206 12.2895 -6.105e-05 12.3666 1.83293e-07 12.4444V15.4074C1.83293e-07 15.5646 0.0624557 15.7153 0.173627 15.8264C0.284799 15.9376 0.43558 16 0.5928 16H3.5568C3.71402 16 3.8648 15.9376 3.97597 15.8264C4.08715 15.7153 4.1496 15.5646 4.1496 15.4074V14.2222H5.3352C5.49242 14.2222 5.6432 14.1598 5.75437 14.0487C5.86555 13.9375 5.928 13.7868 5.928 13.6296V12.4444H7.1136C7.19147 12.4445 7.26859 12.4292 7.34055 12.3995C7.41252 12.3697 7.47791 12.3261 7.53301 12.2711L8.2414 11.5622C9.05615 11.8267 9.91855 11.9114 10.7692 11.8107C11.6199 11.71 12.4386 11.4262 13.169 10.9788C13.8994 10.5314 14.5242 9.93115 15.0002 9.21925C15.4763 8.50735 15.7924 7.70078 15.9267 6.85506C16.061 6.00933 16.0104 5.14456 15.7782 4.32028C15.5461 3.496 15.1381 2.73179 14.5822 2.08029C14.0263 1.42878 13.3358 0.905444 12.5581 0.546319C11.7805 0.187194 10.9342 0.000809414 10.0776 0ZM10.0776 10.6667C9.47751 10.6677 8.88274 10.5543 8.32514 10.3326C8.21606 10.2853 8.09527 10.2718 7.97845 10.294C7.86164 10.3162 7.7542 10.373 7.67009 10.457L6.86833 11.2593H5.3352C5.17798 11.2593 5.0272 11.3217 4.91603 11.4328C4.80486 11.544 4.7424 11.6947 4.7424 11.8519V13.037H3.5568C3.39958 13.037 3.2488 13.0995 3.13763 13.2106C3.02646 13.3217 2.964 13.4725 2.964 13.6296V14.8148H1.1856V12.6896L5.5449 8.33259C5.62896 8.24852 5.68577 8.14111 5.70797 8.02434C5.73017 7.90757 5.71673 7.78682 5.66939 7.67778C5.29451 6.73544 5.2318 5.69777 5.49046 4.71717C5.74912 3.73657 6.31552 2.86474 7.10648 2.22971C7.89743 1.59468 8.87125 1.22993 9.88489 1.18904C10.8985 1.14815 11.8986 1.43327 12.7382 2.00252C13.5777 2.57177 14.2126 3.39515 14.5494 4.35173C14.8863 5.3083 14.9074 6.34765 14.6097 7.31712C14.312 8.28658 13.7112 9.13507 12.8954 9.73796C12.0797 10.3408 11.0921 10.6663 10.0776 10.6667ZM12.4488 4.44444C12.4488 4.62025 12.3967 4.79211 12.2989 4.93828C12.2012 5.08446 12.0624 5.19839 11.8999 5.26567C11.7374 5.33295 11.5586 5.35055 11.3861 5.31625C11.2136 5.28196 11.0552 5.1973 10.9308 5.07298C10.8065 4.94867 10.7218 4.79029 10.6875 4.61786C10.6532 4.44543 10.6708 4.2667 10.7381 4.10428C10.8054 3.94186 10.9194 3.80303 11.0656 3.70536C11.2118 3.60769 11.3837 3.55556 11.5596 3.55556C11.7954 3.55556 12.0216 3.64921 12.1884 3.81591C12.3551 3.9826 12.4488 4.2087 12.4488 4.44444Z" fill="#F5F5F5"/>
</svg>