<svg width="736" height="736" viewBox="0 0 736 736" fill="none" xmlns="http://www.w3.org/2000/svg">
<rect width="736" height="736" fill="black"/>
<path d="M212.936 369.59C212.936 369.59 208.04 366.874 202.382 384.2L212.11 395.252C212.11 395.252 218.995 378.46 212.936 369.59Z" fill="#375DAB"/>
<path d="M160.926 383.447C160.926 383.447 175.913 395.259 192.806 401.39L203.705 383.597C203.705 383.597 200.84 382.488 198.464 379.782C197.953 381.076 197.213 382.118 196.423 382.935C194.686 384.734 192.371 385.692 189.99 385.896C177.812 386.94 168.943 378.256 166.812 375.944C164.923 378.616 162.87 381.314 160.926 383.447Z" fill="#375DAB"/>
<path d="M148.538 395.191L164.796 378.711C164.796 378.711 177.6 391.238 190.39 396.397C191.2 396.723 192.111 396.449 192.677 395.735C194.475 393.466 198.284 388.255 199.618 383.298L203.705 383.597C203.705 383.597 207.904 388.795 211.611 392.156C212.571 393.026 213.275 394.182 213.589 395.504C215.121 401.936 217.633 421.29 197.854 436.577C197.22 437.067 196.458 437.317 195.682 437.316C191.353 437.309 176.564 436.091 164.421 420.829C164.421 420.829 158.055 413.123 150.665 409.52C148.049 408.243 146.278 405.501 146.02 402.371C145.91 401.042 146.08 399.704 146.517 398.459C146.954 397.215 147.645 396.097 148.538 395.191Z" fill="white"/>
<path d="M211.611 392.155C207.904 388.795 203.706 383.597 203.706 383.597L199.625 383.298L199.615 383.308C198.32 388.107 194.716 393.132 192.858 395.504C194.806 426.492 174.025 424.439 165.744 422.418C177.616 436.173 191.509 437.309 195.683 437.315C196.458 437.317 197.221 437.066 197.855 436.576C217.634 421.289 215.121 401.936 213.59 395.504C213.275 394.182 212.571 393.026 211.611 392.155Z" fill="#CDE0FF"/>
<path d="M214.366 394.425C214.052 393.103 213.348 391.947 212.388 391.077C208.68 387.716 204.482 382.518 204.482 382.518L200.395 382.219C199.061 387.176 195.252 392.387 193.454 394.656C193.194 394.982 192.856 395.222 192.478 395.348C197.75 412.699 197.363 430.718 197.092 436.177C197.643 436.078 198.172 435.853 198.632 435.497C218.41 420.211 215.898 400.857 214.366 394.425Z" fill="#AFC8FF"/>
<path d="M158.581 377.209L163.597 374.085C164.889 373.281 166.519 373.584 167.482 374.824C169.066 376.865 171.383 380.246 172.906 384.218C173.829 386.627 173.02 389.415 170.975 390.754C169.244 391.888 167.052 391.695 165.502 390.28C163.437 388.394 160.487 385.561 157.865 382.525C156.476 380.916 156.825 378.303 158.581 377.209Z" fill="#FFC105"/>
<path d="M198.776 379.723L198.996 389.141C199.014 389.913 199.285 390.653 199.76 391.223C200.235 391.794 200.882 392.157 201.581 392.246C202.889 392.413 204.142 391.606 204.63 390.264C205.138 388.868 205.714 386.98 205.963 385.062C206.081 384.154 205.769 383.243 205.155 382.62C204.173 381.624 202.461 380.056 200.264 378.715C199.587 378.302 198.756 378.873 198.776 379.723Z" fill="url(#paint0_linear_983_286)"/>
<path d="M145.885 365.162C151.244 368.419 162.588 377.665 162.978 397.733C162.993 398.519 162.825 399.296 162.506 400C161.009 403.309 155.691 412.413 142.033 413.847C141.442 413.91 140.847 413.821 140.293 413.588C139.74 413.355 139.243 412.983 138.843 412.503C136.994 410.279 133.104 406.105 128.206 403.683C126.814 402.995 125.988 401.387 126.166 399.723C126.744 394.33 129.264 383.119 140.142 377.771C141.44 377.133 142.414 375.913 142.785 374.406C143.222 372.63 143.638 370.014 143.47 366.826C143.396 365.421 144.763 364.481 145.885 365.162Z" fill="#EEF5FF"/>
<path d="M162.506 400C162.825 399.296 162.993 398.519 162.978 397.733C162.598 378.123 151.76 368.85 146.265 365.398C151.59 373.069 165.922 398.036 137.329 410.789C137.848 411.345 138.352 411.917 138.843 412.503C139.243 412.983 139.74 413.355 140.294 413.588C140.847 413.821 141.443 413.91 142.033 413.847C155.691 412.413 161.009 403.31 162.506 400Z" fill="#C7DAFF"/>
<path d="M135.335 387.166C135.804 386.035 136.668 384.738 138.255 383.793C138.323 383.752 138.396 383.714 138.47 383.684C138.793 383.553 139.767 383.196 140.853 383.191C142.018 383.186 142.769 384.555 142.195 385.668C141.453 387.107 139.956 388.911 137.01 389.467C135.811 389.692 134.83 388.382 135.335 387.166Z" fill="white"/>
<path d="M184.105 310.948C184.105 304.175 179.102 298.685 172.931 298.685C161.471 298.685 152.18 308.881 152.18 321.459V358.249C152.18 360.929 154.159 363.101 156.601 363.101C159.042 363.101 161.021 360.929 161.021 358.249V352.387C161.021 351.798 161.234 351.232 161.614 350.815C161.994 350.398 162.509 350.164 163.047 350.164C163.584 350.164 164.099 350.398 164.479 350.815C164.859 351.232 165.073 351.798 165.073 352.387V354.476C165.073 356.113 166.282 357.441 167.774 357.441C169.266 357.441 170.476 356.114 170.476 354.476V339.248C170.476 339.248 170.107 318.899 184.105 310.948Z" fill="url(#paint1_linear_983_286)"/>
<path d="M172.931 298.685C169.997 298.682 167.096 299.365 164.422 300.689C169.414 301.856 176.931 305.654 174.369 318.01L176.054 318.75C177.99 315.714 180.596 312.941 184.105 310.948C184.105 304.175 179.102 298.685 172.931 298.685Z" fill="#FFC105"/>
<path d="M171.18 346.985C171.18 346.985 166.806 344.815 166.354 336.434C166.036 330.559 167.673 324.727 170.838 319.976C172.114 318.059 173.77 316.035 175.877 314.222C183.877 307.342 195.1 307.072 203.429 313.465C207.089 316.274 210.389 320.609 211.409 327.277C211.548 328.181 211.611 329.098 211.645 330.015C211.757 333.001 211.74 339.311 209.807 341.949L171.18 346.985Z" fill="#EEF5FF"/>
<path d="M209.807 341.949C211.74 339.311 211.757 333.001 211.645 330.015C211.611 329.098 211.547 328.181 211.409 327.277C210.389 320.609 207.089 316.274 203.429 313.465C198.66 309.803 192.943 308.338 187.424 309.037C193.144 311.68 202.274 320.273 179.058 345.958L209.807 341.949Z" fill="#C7DAFF"/>
<path d="M169.953 330.805C170.243 328.869 171.256 324.029 174.421 320.768C174.812 320.366 175.315 320.122 175.848 320.075C176.382 320.029 176.914 320.182 177.357 320.511C177.872 320.893 178.228 321.484 178.347 322.153C178.466 322.823 178.339 323.517 177.992 324.084C176.649 326.284 174.408 329.698 172.108 332.063C171.884 332.293 171.593 332.428 171.287 332.443C170.982 332.459 170.68 332.355 170.438 332.149C170.254 331.995 170.111 331.788 170.026 331.551C169.94 331.314 169.915 331.056 169.953 330.805Z" fill="white"/>
<path d="M174.507 344.113C177.049 341.369 186.252 332.127 201.928 323.864C201.928 323.864 210.467 333.236 214.789 342.492V347.005C214.789 347.005 210.718 354.364 202.601 360.034C202.601 360.034 189.036 357.154 174.814 347.205C174.422 346.929 174.14 346.499 174.027 346.003C173.95 345.669 173.954 345.319 174.038 344.988C174.122 344.656 174.284 344.355 174.507 344.113Z" fill="#EEF5FF"/>
<path d="M187.771 354.686C196.291 358.691 202.6 360.034 202.6 360.034C210.718 354.365 214.789 347.005 214.789 347.005V342.492C211.264 334.944 204.938 327.323 202.723 324.766C202.882 331.486 201.876 349.041 187.771 354.686Z" fill="#C7DAFF"/>
<path d="M214.789 347.005V342.492C210.467 333.236 201.928 323.864 201.928 323.864C201.928 323.864 204.222 337.889 202.601 360.034C210.718 354.364 214.789 347.005 214.789 347.005Z" fill="#819FEA"/>
<path d="M194.796 336.048C194.796 336.048 196.226 334.674 198.638 333.01C198.638 333.01 199.478 344.129 198.791 351.422L194.949 349.103L194.796 336.048ZM189.213 340.209L189.66 345.965L186.139 343.749C186.139 343.749 188.277 341.428 189.213 340.209ZM206.083 334.711C206.083 334.711 206.587 342.554 206.166 351.106L208.607 348.03L208.683 337.875L206.083 334.711ZM212.11 342.715C211.775 342.288 211.368 341.786 211.003 341.385V345.825L212.11 344.449V342.715Z" fill="#375DAB"/>
<path d="M173.972 350.75C176.381 350.75 178.333 348.608 178.333 345.965C178.333 343.321 176.381 341.179 173.972 341.179C171.564 341.179 169.612 343.321 169.612 345.965C169.612 348.608 171.564 350.75 173.972 350.75Z" fill="#C7DAFF"/>
<path d="M212.936 369.59C212.936 369.59 217.14 378.23 211.659 392.256C211.051 393.812 211.245 395.605 212.223 396.916C213.592 398.751 215.683 401.371 217.847 403.393C219.814 405.23 222.536 405.724 224.944 404.699C225.98 404.258 227.131 403.655 228.269 402.836C229.342 402.064 229.719 400.531 229.155 399.266C227.768 396.15 224.511 390.037 218.206 383.855C217.851 383.507 217.63 383.022 217.609 382.5C217.503 379.937 216.859 371.939 212.936 369.59Z" fill="#819FEA"/>
<path d="M161.312 416.72C166.396 410.907 175.874 400.571 186.111 391.926C184.053 390.827 182.065 389.668 180.196 388.508C177.034 395.222 170.14 404.277 155.108 412.236C157.459 413.693 159.583 415.291 161.312 416.72ZM191.731 394.663C190.751 394.234 189.782 393.784 188.824 393.314C183.806 398.879 172.323 411.523 164.444 419.48C165.359 420.342 165.885 420.891 165.885 420.891C166.02 421.038 166.157 421.176 166.293 421.32C171.669 415.01 182.656 402.502 191.731 394.663Z" fill="#CDE0FF"/>
<path d="M258.892 376.338H249.584V372.582H258.892C260.694 372.582 262.153 372.295 263.27 371.721C264.387 371.146 265.2 370.349 265.71 369.328C266.237 368.307 266.5 367.143 266.5 365.835C266.5 364.639 266.237 363.514 265.71 362.461C265.2 361.409 264.387 360.563 263.27 359.925C262.153 359.271 260.694 358.944 258.892 358.944H250.661V390H246.043V355.164H258.892C261.523 355.164 263.749 355.619 265.567 356.528C267.385 357.437 268.765 358.697 269.706 360.308C270.647 361.903 271.118 363.729 271.118 365.787C271.118 368.02 270.647 369.926 269.706 371.505C268.765 373.084 267.385 374.289 265.567 375.118C263.749 375.932 261.523 376.338 258.892 376.338ZM291.263 385.574V372.247C291.263 371.226 291.056 370.341 290.641 369.591C290.242 368.826 289.636 368.236 288.823 367.821C288.009 367.406 287.004 367.199 285.808 367.199C284.692 367.199 283.711 367.39 282.865 367.773C282.036 368.156 281.382 368.658 280.903 369.28C280.441 369.902 280.209 370.572 280.209 371.29H275.783C275.783 370.365 276.022 369.448 276.501 368.539C276.979 367.629 277.665 366.808 278.559 366.074C279.468 365.325 280.552 364.734 281.812 364.304C283.089 363.857 284.508 363.634 286.071 363.634C287.953 363.634 289.612 363.953 291.048 364.591C292.499 365.229 293.632 366.194 294.445 367.486C295.275 368.762 295.689 370.365 295.689 372.295V384.354C295.689 385.215 295.761 386.132 295.905 387.105C296.064 388.078 296.296 388.915 296.599 389.617V390H291.981C291.758 389.49 291.582 388.812 291.455 387.966C291.327 387.105 291.263 386.307 291.263 385.574ZM292.029 374.305L292.077 377.415H287.603C286.342 377.415 285.218 377.519 284.229 377.726C283.24 377.917 282.411 378.213 281.741 378.611C281.071 379.01 280.56 379.513 280.209 380.119C279.859 380.709 279.683 381.403 279.683 382.2C279.683 383.014 279.867 383.755 280.233 384.425C280.6 385.095 281.151 385.63 281.884 386.028C282.634 386.411 283.551 386.603 284.636 386.603C285.992 386.603 287.188 386.315 288.225 385.741C289.261 385.167 290.083 384.465 290.689 383.636C291.311 382.806 291.646 382.001 291.694 381.219L293.584 383.349C293.472 384.019 293.169 384.76 292.675 385.574C292.18 386.387 291.518 387.169 290.689 387.918C289.875 388.652 288.903 389.266 287.77 389.761C286.653 390.239 285.393 390.479 283.99 390.479C282.235 390.479 280.696 390.136 279.372 389.45C278.064 388.764 277.043 387.847 276.31 386.698C275.592 385.534 275.233 384.234 275.233 382.798C275.233 381.411 275.504 380.19 276.046 379.138C276.589 378.069 277.37 377.184 278.391 376.482C279.412 375.764 280.64 375.222 282.076 374.855C283.511 374.488 285.114 374.305 286.885 374.305H292.029ZM317.725 383.133C317.725 382.495 317.582 381.905 317.294 381.363C317.023 380.805 316.457 380.302 315.596 379.855C314.75 379.393 313.474 378.994 311.768 378.659C310.332 378.356 309.032 377.997 307.868 377.583C306.719 377.168 305.738 376.665 304.925 376.075C304.127 375.485 303.513 374.791 303.083 373.994C302.652 373.196 302.437 372.263 302.437 371.194C302.437 370.174 302.66 369.208 303.106 368.299C303.569 367.39 304.215 366.585 305.044 365.883C305.89 365.181 306.903 364.631 308.083 364.232C309.263 363.833 310.579 363.634 312.031 363.634C314.104 363.634 315.875 364.001 317.342 364.734C318.81 365.468 319.934 366.449 320.716 367.677C321.497 368.889 321.888 370.237 321.888 371.721H317.462C317.462 371.003 317.247 370.309 316.816 369.639C316.401 368.953 315.787 368.387 314.974 367.94C314.176 367.494 313.195 367.271 312.031 367.271C310.803 367.271 309.806 367.462 309.04 367.845C308.29 368.212 307.74 368.682 307.389 369.256C307.054 369.831 306.887 370.437 306.887 371.075C306.887 371.553 306.966 371.984 307.126 372.367C307.301 372.734 307.604 373.076 308.035 373.396C308.466 373.699 309.072 373.986 309.854 374.257C310.635 374.528 311.632 374.799 312.844 375.07C314.966 375.549 316.712 376.123 318.084 376.793C319.456 377.463 320.477 378.284 321.146 379.257C321.816 380.23 322.151 381.411 322.151 382.798C322.151 383.931 321.912 384.968 321.434 385.909C320.971 386.85 320.293 387.663 319.4 388.349C318.523 389.019 317.47 389.545 316.242 389.928C315.029 390.295 313.666 390.479 312.15 390.479C309.869 390.479 307.939 390.072 306.36 389.258C304.781 388.445 303.585 387.392 302.771 386.1C301.958 384.808 301.551 383.444 301.551 382.009H306.001C306.065 383.221 306.416 384.186 307.054 384.904C307.692 385.606 308.474 386.108 309.399 386.411C310.324 386.698 311.241 386.842 312.15 386.842C313.363 386.842 314.375 386.682 315.189 386.363C316.018 386.044 316.648 385.606 317.079 385.047C317.51 384.489 317.725 383.851 317.725 383.133ZM343.039 383.133C343.039 382.495 342.895 381.905 342.608 381.363C342.337 380.805 341.771 380.302 340.909 379.855C340.064 379.393 338.788 378.994 337.081 378.659C335.646 378.356 334.346 377.997 333.181 377.583C332.033 377.168 331.052 376.665 330.238 376.075C329.441 375.485 328.827 374.791 328.396 373.994C327.965 373.196 327.75 372.263 327.75 371.194C327.75 370.174 327.973 369.208 328.42 368.299C328.882 367.39 329.528 366.585 330.358 365.883C331.203 365.181 332.216 364.631 333.396 364.232C334.577 363.833 335.893 363.634 337.344 363.634C339.418 363.634 341.188 364.001 342.656 364.734C344.123 365.468 345.248 366.449 346.029 367.677C346.811 368.889 347.202 370.237 347.202 371.721H342.775C342.775 371.003 342.56 370.309 342.129 369.639C341.715 368.953 341.101 368.387 340.287 367.94C339.49 367.494 338.509 367.271 337.344 367.271C336.116 367.271 335.119 367.462 334.354 367.845C333.604 368.212 333.054 368.682 332.703 369.256C332.368 369.831 332.2 370.437 332.2 371.075C332.2 371.553 332.28 371.984 332.439 372.367C332.615 372.734 332.918 373.076 333.349 373.396C333.779 373.699 334.385 373.986 335.167 374.257C335.949 374.528 336.945 374.799 338.158 375.07C340.279 375.549 342.026 376.123 343.397 376.793C344.769 377.463 345.79 378.284 346.46 379.257C347.13 380.23 347.465 381.411 347.465 382.798C347.465 383.931 347.226 384.968 346.747 385.909C346.285 386.85 345.607 387.663 344.713 388.349C343.836 389.019 342.783 389.545 341.555 389.928C340.343 390.295 338.979 390.479 337.464 390.479C335.183 390.479 333.253 390.072 331.674 389.258C330.095 388.445 328.898 387.392 328.085 386.1C327.271 384.808 326.865 383.444 326.865 382.009H331.315C331.379 383.221 331.73 384.186 332.368 384.904C333.006 385.606 333.787 386.108 334.712 386.411C335.638 386.698 336.555 386.842 337.464 386.842C338.676 386.842 339.689 386.682 340.502 386.363C341.332 386.044 341.962 385.606 342.393 385.047C342.823 384.489 343.039 383.851 343.039 383.133Z" fill="white"/>
<path d="M379.693 372.654V385.406C379.262 386.044 378.576 386.762 377.635 387.56C376.694 388.341 375.394 389.027 373.735 389.617C372.092 390.191 369.971 390.479 367.371 390.479C365.25 390.479 363.296 390.112 361.509 389.378C359.739 388.628 358.2 387.544 356.892 386.124C355.6 384.688 354.595 382.95 353.877 380.908C353.175 378.851 352.824 376.522 352.824 373.922V371.218C352.824 368.618 353.127 366.298 353.733 364.256C354.355 362.214 355.265 360.484 356.461 359.064C357.657 357.628 359.125 356.544 360.863 355.81C362.602 355.06 364.596 354.686 366.845 354.686C369.508 354.686 371.734 355.148 373.52 356.073C375.322 356.982 376.726 358.243 377.731 359.854C378.752 361.465 379.406 363.299 379.693 365.356H375.075C374.868 364.096 374.453 362.948 373.831 361.911C373.225 360.874 372.356 360.045 371.223 359.423C370.091 358.785 368.631 358.466 366.845 358.466C365.234 358.466 363.838 358.761 362.658 359.351C361.477 359.941 360.504 360.787 359.739 361.887C358.973 362.988 358.399 364.32 358.016 365.883C357.649 367.446 357.466 369.208 357.466 371.17V373.922C357.466 375.932 357.697 377.726 358.16 379.305C358.638 380.884 359.316 382.232 360.193 383.349C361.071 384.449 362.115 385.287 363.328 385.861C364.556 386.435 365.912 386.722 367.395 386.722C369.038 386.722 370.37 386.587 371.391 386.315C372.411 386.028 373.209 385.693 373.783 385.311C374.357 384.912 374.796 384.537 375.099 384.186V376.386H367.036V372.654H379.693ZM402.518 384.019V364.112H406.968V390H402.733L402.518 384.019ZM403.355 378.563L405.198 378.516C405.198 380.238 405.014 381.833 404.647 383.301C404.297 384.752 403.722 386.012 402.925 387.081C402.127 388.15 401.083 388.987 399.791 389.593C398.499 390.183 396.927 390.479 395.077 390.479C393.817 390.479 392.661 390.295 391.608 389.928C390.571 389.561 389.678 388.995 388.928 388.229C388.179 387.464 387.596 386.467 387.182 385.239C386.783 384.011 386.583 382.535 386.583 380.812V364.112H391.01V380.86C391.01 382.025 391.137 382.99 391.393 383.755C391.664 384.505 392.023 385.103 392.469 385.55C392.932 385.98 393.442 386.284 394 386.459C394.575 386.634 395.165 386.722 395.771 386.722C397.653 386.722 399.145 386.363 400.245 385.646C401.346 384.912 402.135 383.931 402.614 382.703C403.108 381.458 403.355 380.079 403.355 378.563ZM428.98 385.574V372.247C428.98 371.226 428.773 370.341 428.358 369.591C427.959 368.826 427.353 368.236 426.54 367.821C425.726 367.406 424.721 367.199 423.525 367.199C422.408 367.199 421.427 367.39 420.582 367.773C419.753 368.156 419.099 368.658 418.62 369.28C418.158 369.902 417.926 370.572 417.926 371.29H413.5C413.5 370.365 413.739 369.448 414.218 368.539C414.696 367.629 415.382 366.808 416.275 366.074C417.185 365.325 418.269 364.734 419.529 364.304C420.805 363.857 422.225 363.634 423.788 363.634C425.67 363.634 427.329 363.953 428.765 364.591C430.216 365.229 431.349 366.194 432.162 367.486C432.992 368.762 433.406 370.365 433.406 372.295V384.354C433.406 385.215 433.478 386.132 433.622 387.105C433.781 388.078 434.012 388.915 434.315 389.617V390H429.698C429.474 389.49 429.299 388.812 429.171 387.966C429.044 387.105 428.98 386.307 428.98 385.574ZM429.746 374.305L429.793 377.415H425.319C424.059 377.415 422.935 377.519 421.946 377.726C420.957 377.917 420.127 378.213 419.458 378.611C418.788 379.01 418.277 379.513 417.926 380.119C417.575 380.709 417.4 381.403 417.4 382.2C417.4 383.014 417.583 383.755 417.95 384.425C418.317 385.095 418.867 385.63 419.601 386.028C420.351 386.411 421.268 386.603 422.353 386.603C423.708 386.603 424.905 386.315 425.941 385.741C426.978 385.167 427.8 384.465 428.406 383.636C429.028 382.806 429.363 382.001 429.411 381.219L431.301 383.349C431.189 384.019 430.886 384.76 430.392 385.574C429.897 386.387 429.235 387.169 428.406 387.918C427.592 388.652 426.619 389.266 425.487 389.761C424.37 390.239 423.11 390.479 421.707 390.479C419.952 390.479 418.413 390.136 417.089 389.45C415.781 388.764 414.76 387.847 414.026 386.698C413.309 385.534 412.95 384.234 412.95 382.798C412.95 381.411 413.221 380.19 413.763 379.138C414.306 378.069 415.087 377.184 416.108 376.482C417.129 375.764 418.357 375.222 419.792 374.855C421.228 374.488 422.831 374.305 424.602 374.305H429.746ZM444.795 368.18V390H440.369V364.112H444.675L444.795 368.18ZM452.882 363.969L452.858 368.084C452.491 368.004 452.14 367.956 451.805 367.94C451.486 367.909 451.119 367.893 450.705 367.893C449.684 367.893 448.783 368.052 448.001 368.371C447.219 368.69 446.557 369.137 446.015 369.711C445.473 370.285 445.042 370.971 444.723 371.769C444.42 372.55 444.221 373.411 444.125 374.353L442.881 375.07C442.881 373.507 443.032 372.04 443.335 370.668C443.654 369.296 444.141 368.084 444.795 367.031C445.449 365.963 446.278 365.133 447.283 364.543C448.304 363.937 449.516 363.634 450.92 363.634C451.239 363.634 451.606 363.674 452.021 363.753C452.435 363.817 452.722 363.889 452.882 363.969ZM472.812 384.976V353.25H477.262V390H473.195L472.812 384.976ZM455.394 377.343V376.841C455.394 374.863 455.633 373.069 456.112 371.458C456.606 369.831 457.3 368.435 458.193 367.271C459.103 366.106 460.179 365.213 461.423 364.591C462.683 363.953 464.087 363.634 465.634 363.634C467.261 363.634 468.681 363.921 469.893 364.495C471.121 365.053 472.158 365.875 473.003 366.959C473.865 368.028 474.543 369.32 475.037 370.835C475.532 372.351 475.875 374.065 476.066 375.979V378.181C475.89 380.079 475.548 381.785 475.037 383.301C474.543 384.816 473.865 386.108 473.003 387.177C472.158 388.245 471.121 389.067 469.893 389.641C468.665 390.199 467.229 390.479 465.586 390.479C464.071 390.479 462.683 390.152 461.423 389.498C460.179 388.844 459.103 387.926 458.193 386.746C457.3 385.566 456.606 384.178 456.112 382.583C455.633 380.972 455.394 379.225 455.394 377.343ZM459.844 376.841V377.343C459.844 378.635 459.972 379.847 460.227 380.98C460.498 382.112 460.913 383.109 461.471 383.971C462.029 384.832 462.739 385.51 463.601 386.004C464.462 386.483 465.491 386.722 466.687 386.722C468.154 386.722 469.359 386.411 470.3 385.789C471.257 385.167 472.022 384.346 472.597 383.325C473.171 382.304 473.618 381.195 473.937 379.999V374.233C473.745 373.356 473.466 372.51 473.099 371.697C472.748 370.867 472.286 370.134 471.711 369.496C471.153 368.842 470.459 368.323 469.63 367.94C468.816 367.558 467.851 367.366 466.735 367.366C465.523 367.366 464.478 367.621 463.601 368.132C462.739 368.626 462.029 369.312 461.471 370.189C460.913 371.051 460.498 372.056 460.227 373.204C459.972 374.337 459.844 375.549 459.844 376.841Z" fill="#FFC105"/>
<defs>
<linearGradient id="paint0_linear_983_286" x1="200.789" y1="388.434" x2="206.107" y2="372.282" gradientUnits="userSpaceOnUse">
<stop stop-color="#FFC105"/>
<stop offset="1" stop-color="#8E3979"/>
</linearGradient>
<linearGradient id="paint1_linear_983_286" x1="168.142" y1="330.707" x2="168.142" y2="410.528" gradientUnits="userSpaceOnUse">
<stop stop-color="#FFC105"/>
<stop offset="1" stop-color="#8E3979"/>
</linearGradient>
</defs>
</svg>
