<svg width="48" height="48" viewBox="0 0 48 48" fill="none" xmlns="http://www.w3.org/2000/svg">
<rect width="48" height="48" fill="none"/>
<path d="M37.2298 24.5452C37.2298 24.5452 35.3872 23.614 33.2581 29.5544L36.9186 33.3434C36.9186 33.3434 39.5096 27.5864 37.2298 24.5452Z" fill="#375DAB"/>
<path d="M17.6584 29.2961C17.6584 29.2961 23.2978 33.346 29.6548 35.448L33.7562 29.3474C33.7562 29.3474 32.6779 28.9672 31.7837 28.0397C31.5915 28.4832 31.313 28.8404 31.0159 29.1207C30.362 29.7375 29.491 30.0659 28.5949 30.1359C24.0125 30.4936 20.6749 27.5164 19.8731 26.7235C19.1622 27.6399 18.3897 28.565 17.6584 29.2961Z" fill="#375DAB"/>
<path d="M12.9964 33.3228L19.1144 27.6724C19.1144 27.6724 23.9327 31.9673 28.7454 33.7359C29.0502 33.8479 29.3931 33.754 29.6062 33.5091C30.2825 32.7312 31.716 30.9444 32.2181 29.2449L33.7561 29.3475C33.7561 29.3475 35.3358 31.1297 36.731 32.282C37.0923 32.5804 37.357 32.9766 37.4754 33.43C38.0516 35.6353 38.9971 42.2707 31.5542 47.5119C31.3157 47.6799 31.0289 47.7659 30.737 47.7653C29.1078 47.763 23.5427 47.3456 18.9734 42.1128C18.9734 42.1128 16.5779 39.4706 13.7972 38.2353C12.8125 37.7977 12.1461 36.8574 12.049 35.7843C12.0078 35.3288 12.0718 34.87 12.2361 34.4432C12.4004 34.0164 12.6605 33.6331 12.9964 33.3228Z" fill="white"/>
<path d="M36.7312 32.2819C35.3359 31.1296 33.7563 29.3474 33.7563 29.3474L32.2209 29.245L32.217 29.2486C31.7297 30.8937 30.3733 32.6168 29.6744 33.4299C30.4073 44.0542 22.5874 43.3505 19.4712 42.6577C23.9388 47.3735 29.1668 47.7629 30.7373 47.7652C31.0292 47.7658 31.3159 47.6798 31.5545 47.5118C38.9974 42.2707 38.0519 35.6352 37.4757 33.4299C37.3572 32.9766 37.0924 32.5802 36.7312 32.2819Z" fill="#CDE0FF"/>
<path d="M37.7678 33.0601C37.6493 32.6067 37.3847 32.2104 37.0235 31.912C35.6282 30.7597 34.0485 28.9776 34.0485 28.9776L32.5105 28.875C32.0084 30.5745 30.575 32.3614 29.8987 33.1391C29.8008 33.251 29.6735 33.3333 29.5312 33.3765C31.5151 39.3252 31.3693 45.5034 31.2673 47.375C31.4748 47.3411 31.6737 47.2638 31.8469 47.1419C39.2896 41.9008 38.344 35.2654 37.7678 33.0601Z" fill="#AFC8FF"/>
<path d="M16.776 27.1573L18.6632 26.0863C19.1493 25.8106 19.7628 25.9144 20.1252 26.3398C20.7211 27.0396 21.5932 28.1985 22.1662 29.5604C22.5136 30.3864 22.2091 31.3424 21.4396 31.8014C20.7881 32.1901 19.9636 32.1239 19.3802 31.6387C18.6032 30.9923 17.493 30.021 16.5065 28.9801C15.9835 28.4282 16.1149 27.5326 16.776 27.1573Z" fill="#FFC105"/>
<path d="M31.9013 28.0191L31.984 31.2482C31.9908 31.5131 32.0929 31.7666 32.2716 31.9622C32.4503 32.1579 32.6937 32.2824 32.9569 32.313C33.4491 32.3702 33.9204 32.0934 34.1041 31.6333C34.2952 31.1546 34.512 30.5074 34.6058 29.8499C34.6503 29.5385 34.5327 29.2263 34.3016 29.0126C33.932 28.6711 33.2878 28.1335 32.461 27.6738C32.2063 27.5321 31.8938 27.7278 31.9013 28.0191Z" fill="url(#paint0_linear_0_1)"/>
<path d="M11.9984 23.0271C14.0151 24.1437 18.2838 27.3138 18.4304 34.1941C18.4362 34.4635 18.3728 34.73 18.2529 34.9713C17.6894 36.106 15.6882 39.2272 10.5487 39.7191C10.3266 39.7406 10.1025 39.7101 9.89417 39.6301C9.68585 39.5501 9.49897 39.4228 9.34832 39.2582C8.6526 38.4957 7.18879 37.0644 5.34557 36.2342C4.82179 35.9981 4.5111 35.4469 4.57813 34.8763C4.79544 33.0275 5.74391 29.1837 9.83713 27.35C10.3256 27.1312 10.6922 26.7131 10.8317 26.1964C10.9963 25.5876 11.1527 24.6904 11.0895 23.5974C11.0619 23.1157 11.5763 22.7933 11.9984 23.0271Z" fill="#EEF5FF"/>
<path d="M18.2528 34.9713C18.3727 34.73 18.436 34.4635 18.4303 34.1941C18.2872 27.4707 14.209 24.2915 12.1411 23.1079C14.1449 25.7378 19.538 34.2981 8.77856 38.6704C8.97373 38.8612 9.16374 39.0572 9.34838 39.2582C9.49903 39.4228 9.6859 39.5502 9.89423 39.6302C10.1026 39.7101 10.3266 39.7406 10.5488 39.7191C15.6882 39.2272 17.6894 36.1061 18.2528 34.9713Z" fill="#C7DAFF"/>
<path d="M8.02812 30.5713C8.20493 30.1834 8.52987 29.7387 9.12696 29.4146C9.15284 29.4006 9.18031 29.3877 9.20806 29.3775C9.32946 29.3324 9.69603 29.21 10.1046 29.2085C10.5432 29.2068 10.8256 29.6761 10.6096 30.0578C10.3304 30.5509 9.767 31.1695 8.65868 31.36C8.20728 31.4374 7.83809 30.9881 8.02812 30.5713Z" fill="white"/>
<path d="M26.3802 4.43933C26.3802 2.11715 24.4978 0.234741 22.1756 0.234741C17.8631 0.234741 14.3672 3.73068 14.3672 8.04318V20.6569C14.3672 21.5755 15.1118 22.3203 16.0305 22.3203C16.9492 22.3203 17.6938 21.5755 17.6938 20.6569V18.6471C17.6938 18.4449 17.7741 18.2509 17.9171 18.108C18.0601 17.965 18.254 17.8847 18.4562 17.8847C18.6584 17.8847 18.8523 17.965 18.9953 18.108C19.1382 18.2509 19.2186 18.4449 19.2186 18.6471V19.3633C19.2186 19.9246 19.6736 20.3797 20.2351 20.3797C20.7965 20.3797 21.2516 19.9247 21.2516 19.3633V14.1422C21.2516 14.1422 21.113 7.1653 26.3802 4.43933Z" fill="url(#paint1_linear_0_1)"/>
<path d="M22.1758 0.234744C21.0717 0.233883 19.9801 0.46814 18.9736 0.921931C20.8524 1.32215 23.681 2.62415 22.7169 6.86062L23.3511 7.11412C24.0795 6.07331 25.06 5.12268 26.3804 4.43934C26.3804 2.11715 24.4979 0.234744 22.1758 0.234744Z" fill="#FFC105"/>
<path d="M21.5169 16.7949C21.5169 16.7949 19.8709 16.0509 19.7007 13.1775C19.5812 11.1631 20.1969 9.16342 21.388 7.53451C21.8684 6.87751 22.4912 6.18329 23.2844 5.56183C26.2948 3.20289 30.518 3.11026 33.6522 5.30214C35.0294 6.26523 36.271 7.75164 36.6549 10.0377C36.707 10.3479 36.7307 10.6623 36.7437 10.9766C36.7858 12.0004 36.7794 14.1639 36.0522 15.0683L21.5169 16.7949Z" fill="#EEF5FF"/>
<path d="M36.0522 15.0683C36.7794 14.1639 36.7858 12.0004 36.7437 10.9766C36.7308 10.6623 36.707 10.3479 36.6549 10.0377C36.2709 7.75163 35.0294 6.26531 33.6522 5.30213C31.8575 4.04691 29.7062 3.5445 27.6295 3.78413C29.7818 4.69013 33.2174 7.6365 24.4812 16.4427L36.0522 15.0683Z" fill="#C7DAFF"/>
<path d="M21.055 11.2473C21.1641 10.5835 21.5455 8.92416 22.7366 7.8061C22.8835 7.66838 23.0728 7.58467 23.2736 7.56869C23.4743 7.55271 23.6745 7.60542 23.8413 7.71816C24.0351 7.84915 24.1691 8.05162 24.2139 8.2812C24.2587 8.51079 24.2107 8.74877 24.0803 8.943C23.575 9.69722 22.7314 10.8678 21.866 11.6788C21.7819 11.7575 21.6724 11.8038 21.5573 11.8092C21.4422 11.8146 21.3289 11.7788 21.2377 11.7083C21.1683 11.6553 21.1147 11.5843 21.0825 11.5031C21.0503 11.4219 21.0408 11.3335 21.055 11.2473Z" fill="white"/>
<path d="M22.7688 15.8102C23.7252 14.8695 27.1883 11.7006 33.0872 8.86771C33.0872 8.86771 36.3004 12.0809 37.9268 15.2544V16.8016C37.9268 16.8016 36.3948 19.3249 33.3403 21.2687C33.3403 21.2687 28.2361 20.2813 22.8842 16.8702C22.7366 16.7756 22.6307 16.6282 22.5882 16.4582C22.5591 16.3438 22.5605 16.2238 22.5922 16.1101C22.6239 15.9964 22.6848 15.893 22.7688 15.8102Z" fill="#EEF5FF"/>
<path d="M27.76 19.435C30.9662 20.8082 33.3403 21.2688 33.3403 21.2688C36.3948 19.325 37.9268 16.8017 37.9268 16.8017V15.2545C36.6004 12.6666 34.22 10.0535 33.3864 9.17691C33.4463 11.481 33.0679 17.4997 27.76 19.435Z" fill="#C7DAFF"/>
<path d="M37.9271 16.8016V15.2544C36.3006 12.0809 33.0874 8.86771 33.0874 8.86771C33.0874 8.86771 33.9507 13.6763 33.3405 21.2687C36.395 19.3249 37.9271 16.8016 37.9271 16.8016Z" fill="#819FEA"/>
<path d="M30.4037 13.0451C30.4037 13.0451 30.9416 12.574 31.8493 12.0035C31.8493 12.0035 32.1654 15.8156 31.9068 18.316L30.4611 17.5209L30.4037 13.0451ZM28.3025 14.4718L28.4709 16.445L27.1458 15.6854C27.1458 15.6855 27.9504 14.8897 28.3025 14.4718ZM34.6507 12.5865C34.6507 12.5865 34.8407 15.2757 34.6822 18.2077L35.6008 17.1531L35.6294 13.6716L34.6507 12.5865ZM36.9186 15.3309C36.7926 15.1844 36.6395 15.0123 36.5021 14.8748V16.3971L36.9186 15.9254V15.3309Z" fill="#375DAB"/>
<path d="M22.5677 18.0859C23.4739 18.0859 24.2086 17.3512 24.2086 16.445C24.2086 15.5387 23.4739 14.8041 22.5677 14.8041C21.6614 14.8041 20.9268 15.5387 20.9268 16.445C20.9268 17.3512 21.6614 18.0859 22.5677 18.0859Z" fill="#C7DAFF"/>
<path d="M37.2297 24.5453C37.2297 24.5453 38.8115 27.5076 36.7492 32.3162C36.5202 32.8498 36.5934 33.4647 36.9613 33.9142C37.4764 34.5433 38.2634 35.4415 39.0777 36.1347C39.8179 36.7645 40.8422 36.934 41.7483 36.5824C42.138 36.4313 42.5712 36.2245 42.9994 35.9438C43.4033 35.6792 43.5448 35.1536 43.3329 34.7199C42.8108 33.6516 41.5853 31.5554 39.2127 29.436C39.0792 29.3167 38.9961 29.1504 38.988 28.9716C38.9482 28.0928 38.7057 25.3504 37.2297 24.5453Z" fill="#819FEA"/>
<path d="M17.8036 40.704C19.7167 38.7111 23.2833 35.167 27.1355 32.2032C26.3608 31.8265 25.6128 31.429 24.9094 31.0312C23.7198 33.3333 21.1254 36.4378 15.4688 39.1668C16.3535 39.6662 17.1529 40.2141 17.8036 40.704ZM29.25 33.1416C28.8815 32.9945 28.5167 32.8403 28.1561 32.6791C26.2681 34.587 21.9471 38.922 18.9822 41.6503C19.3264 41.9457 19.5241 42.134 19.5241 42.134C19.5751 42.1846 19.6266 42.2317 19.6777 42.2812C21.701 40.1177 25.8353 35.8293 29.25 33.1416Z" fill="#CDE0FF"/>
<defs>
<linearGradient id="paint0_linear_0_1" x1="32.6587" y1="31.006" x2="34.3481" y2="25.3745" gradientUnits="userSpaceOnUse">
<stop stop-color="#FFC105"/>
<stop offset="1" stop-color="#8E3979"/>
</linearGradient>
<linearGradient id="paint1_linear_0_1" x1="20.3737" y1="11.2138" x2="20.3737" y2="38.5811" gradientUnits="userSpaceOnUse">
<stop stop-color="#FFC105"/>
<stop offset="1" stop-color="#8E3979"/>
</linearGradient>
</defs>
</svg>
