<svg width="21" height="21" viewBox="0 0 21 21" fill="none" xmlns="http://www.w3.org/2000/svg">
<path d="M20.4269 7.71576C20.3383 7.43231 20.1712 7.18219 19.9465 6.99653C19.7218 6.81088 19.4495 6.69789 19.1633 6.67165L13.7293 6.18567L11.5992 0.930964C11.4883 0.65524 11.3012 0.419719 11.0616 0.254058C10.8219 0.088396 10.5403 0 10.2524 0C9.96436 0 9.6828 0.088396 9.44313 0.254058C9.20347 0.419719 9.01641 0.65524 8.90551 0.930964L6.78184 6.18567L1.34138 6.6745C1.05411 6.69954 0.780358 6.81201 0.554459 6.99781C0.32856 7.1836 0.160566 7.43445 0.071546 7.7189C-0.0174743 8.00334 -0.023559 8.30872 0.0540552 8.59674C0.131669 8.88476 0.289527 9.1426 0.507833 9.33792L4.6353 13.0796L3.39825 18.6362C3.33284 18.9269 3.3515 19.2313 3.45191 19.5111C3.55232 19.7909 3.73002 20.0338 3.96279 20.2095C4.19556 20.3851 4.47307 20.4857 4.76063 20.4986C5.04819 20.5115 5.33304 20.4362 5.57956 20.282L10.2459 17.3396L14.9224 20.282C15.1689 20.4362 15.4538 20.5115 15.7413 20.4986C16.0289 20.4857 16.3064 20.3851 16.5392 20.2095C16.7719 20.0338 16.9496 19.7909 17.05 19.5111C17.1505 19.2313 17.1691 18.9269 17.1037 18.6362L15.8676 13.0739L19.9941 9.33792C20.2124 9.14192 20.37 8.88335 20.447 8.59472C20.524 8.30609 20.517 8.00029 20.4269 7.71576ZM19.0343 8.19035L14.9078 11.9264C14.7069 12.1076 14.5575 12.3422 14.4756 12.6049C14.3937 12.8677 14.3824 13.1486 14.443 13.4175L15.6827 18.9836L11.01 16.0411C10.782 15.8971 10.5202 15.8209 10.2533 15.8209C9.98634 15.8209 9.72456 15.8971 9.49658 16.0411L4.83019 18.9836L6.06175 13.4213C6.12228 13.1524 6.11098 12.8715 6.02908 12.6087C5.94719 12.346 5.79778 12.1114 5.59694 11.9301L1.46856 8.19604C1.46823 8.19321 1.46823 8.19034 1.46856 8.1875L6.90719 7.69962C7.17272 7.67534 7.42682 7.57631 7.64208 7.41322C7.85734 7.25013 8.02559 7.02917 8.12869 6.77416L10.2524 1.5261L12.3751 6.77416C12.4782 7.02917 12.6465 7.25013 12.8617 7.41322C13.077 7.57631 13.3311 7.67534 13.5966 7.69962L19.0361 8.1875V8.19415L19.0343 8.19035Z" fill="white"/>
</svg>
