<svg width="21" height="21" viewBox="0 0 21 21" fill="none" xmlns="http://www.w3.org/2000/svg">
<path d="M19.6458 3.15385H15.375V2.36538C15.375 1.73805 15.105 1.1364 14.6245 0.692805C14.1439 0.24921 13.4921 0 12.8125 0H7.6875C7.00788 0 6.3561 0.24921 5.87554 0.692805C5.39498 1.1364 5.125 1.73805 5.125 2.36538V3.15385H0.854167C0.627628 3.15385 0.410367 3.23692 0.25018 3.38478C0.0899925 3.53265 0 3.73319 0 3.94231C0 4.15142 0.0899925 4.35197 0.25018 4.49983C0.410367 4.6477 0.627628 4.73077 0.854167 4.73077H1.70833V18.9231C1.70833 19.3413 1.88832 19.7424 2.20869 20.0381C2.52907 20.3339 2.96359 20.5 3.41667 20.5H17.0833C17.5364 20.5 17.9709 20.3339 18.2913 20.0381C18.6117 19.7424 18.7917 19.3413 18.7917 18.9231V4.73077H19.6458C19.8724 4.73077 20.0896 4.6477 20.2498 4.49983C20.41 4.35197 20.5 4.15142 20.5 3.94231C20.5 3.73319 20.41 3.53265 20.2498 3.38478C20.0896 3.23692 19.8724 3.15385 19.6458 3.15385ZM6.83333 2.36538C6.83333 2.15627 6.92333 1.95572 7.08351 1.80786C7.2437 1.65999 7.46096 1.57692 7.6875 1.57692H12.8125C13.039 1.57692 13.2563 1.65999 13.4165 1.80786C13.5767 1.95572 13.6667 2.15627 13.6667 2.36538V3.15385H6.83333V2.36538ZM17.0833 18.9231H3.41667V4.73077H17.0833V18.9231ZM8.54167 8.67308V14.9808C8.54167 15.1899 8.45167 15.3904 8.29149 15.5383C8.1313 15.6862 7.91404 15.7692 7.6875 15.7692C7.46096 15.7692 7.2437 15.6862 7.08351 15.5383C6.92333 15.3904 6.83333 15.1899 6.83333 14.9808V8.67308C6.83333 8.46396 6.92333 8.26342 7.08351 8.11555C7.2437 7.96769 7.46096 7.88461 7.6875 7.88461C7.91404 7.88461 8.1313 7.96769 8.29149 8.11555C8.45167 8.26342 8.54167 8.46396 8.54167 8.67308ZM13.6667 8.67308V14.9808C13.6667 15.1899 13.5767 15.3904 13.4165 15.5383C13.2563 15.6862 13.039 15.7692 12.8125 15.7692C12.586 15.7692 12.3687 15.6862 12.2085 15.5383C12.0483 15.3904 11.9583 15.1899 11.9583 14.9808V8.67308C11.9583 8.46396 12.0483 8.26342 12.2085 8.11555C12.3687 7.96769 12.586 7.88461 12.8125 7.88461C13.039 7.88461 13.2563 7.96769 13.4165 8.11555C13.5767 8.26342 13.6667 8.46396 13.6667 8.67308Z" fill="white"/>
</svg>
