<svg width="21" height="21" viewBox="0 0 21 21" fill="none" xmlns="http://www.w3.org/2000/svg">
<rect width="21" height="21" rx="10.5" fill="#2196F3"/>
<path d="M17.6841 6.0784V9.39434C17.6841 9.54091 17.6259 9.68148 17.5222 9.78513C17.4186 9.88877 17.278 9.947 17.1315 9.947H13.8158C13.6692 9.947 13.5286 9.88877 13.425 9.78513C13.3214 9.68148 13.2632 9.54091 13.2632 9.39434C13.2632 9.24777 13.3214 9.1072 13.425 9.00355C13.5286 8.89991 13.6692 8.84168 13.8158 8.84168H15.7085L13.8717 7.15884L13.8545 7.14226C13.0864 6.37441 12.1091 5.84992 11.0446 5.6343C9.98022 5.41869 8.87586 5.52152 7.86953 5.92994C6.86321 6.33837 5.99952 7.03428 5.38638 7.93074C4.77323 8.8272 4.43781 9.88448 4.42201 10.9705C4.40621 12.0565 4.71073 13.1231 5.29754 14.037C5.88435 14.9509 6.72742 15.6717 7.72144 16.1092C8.71546 16.5467 9.81636 16.6816 10.8866 16.4971C11.9568 16.3125 12.949 15.8167 13.7391 15.0715C13.8456 14.9707 13.9878 14.9164 14.1344 14.9205C14.281 14.9246 14.4199 14.9867 14.5207 15.0933C14.6215 15.1998 14.6758 15.342 14.6717 15.4886C14.6676 15.6352 14.6055 15.7742 14.4989 15.8749C13.2704 17.0402 11.6406 17.688 9.94745 17.6842H9.85627C8.77019 17.6693 7.7044 17.3879 6.75256 16.8646C5.80072 16.3413 4.99198 15.5922 4.39741 14.6832C3.80285 13.7741 3.44067 12.7329 3.3427 11.6511C3.24474 10.5693 3.41399 9.47993 3.83558 8.47884C4.25716 7.47774 4.91818 6.59554 5.76054 5.90977C6.60289 5.22399 7.60079 4.75564 8.66652 4.54588C9.73225 4.33612 10.8332 4.39136 11.8726 4.70677C12.912 5.02217 13.858 5.58807 14.6274 6.35473L16.5789 8.13705V6.0784C16.5789 5.93183 16.6371 5.79126 16.7407 5.68761C16.8444 5.58397 16.9849 5.52574 17.1315 5.52574C17.278 5.52574 17.4186 5.58397 17.5222 5.68761C17.6259 5.79126 17.6841 5.93183 17.6841 6.0784Z" fill="white"/>
</svg>
